<svg width="34" height="24" viewBox="0 0 34 24" fill="none" xmlns="http://www.w3.org/2000/svg">
<path d="M14.5892 0.243849C12.2457 0.275735 9.01069 0.287163 6.66933 0.243849C-0.229661 -0.00352855 0.916989 1.95913 0.375103 10.5355C0.0517852 12.891 0.0729395 18.0999 0 20.4842C-4.98429e-05 23.3144 2.68755 24 9.75328 24C11.6417 24 13.5036 23.8539 15.3837 23.7595C18.2469 23.6157 21.1327 23.8763 23.9987 23.8763C25.0525 23.8763 33.7671 23.8971 33.847 22.9284C34.2366 18.2047 33.847 5.56122 33.0764 1.30307C32.4424 0.166455 31.6607 -0.0341741 30.5284 0.00434045C27.6888 0.10093 27.2297 0.653458 24.3849 0.746474C21.6909 0.834558 17.2836 0.20719 14.5892 0.243849Z" fill="#09366D"/>
<path d="M29.2018 0.582743C29.5024 0.446433 29.8035 0.309949 30.0685 0.113326C30.2244 0.060801 30.3861 0.0247627 30.55 0.0036356C31.6706 -0.0315874 32.4464 0.173676 33.0764 1.30307C33.2405 2.20992 33.3874 3.49708 33.5131 5.00706C33.2246 5.65504 31.6924 6.49614 29.5284 7.684L29.5268 7.68488C29.3063 7.80595 29.0792 7.93061 28.8461 8.05905C29.6788 8.06831 30.5135 8.11552 31.3437 8.16978C31.5113 8.18073 31.7032 8.18625 31.9086 8.19216C32.4896 8.20888 33.1798 8.22874 33.741 8.38356C33.8577 10.5277 33.9385 12.8456 33.9761 15.0434C32.7292 15.1871 30.6819 15.3269 30.0366 15.3269C29.5402 15.3269 29.0446 15.355 28.5489 15.3831C28.0712 15.4102 27.5934 15.4373 27.1148 15.4393C26.7672 15.4407 26.4195 15.4299 26.0717 15.4192C25.8217 15.4114 25.5718 15.4037 25.3218 15.4005C26.9539 16.3712 28.5455 17.2715 29.969 18.0767L30.323 18.2769C30.6544 18.4645 30.9773 18.6645 31.3003 18.8646C31.6709 19.0942 32.0416 19.3238 32.4251 19.5346C32.5536 19.6052 32.6972 19.6766 32.8456 19.7505C33.2069 19.9304 33.5974 20.1248 33.872 20.3571C33.9374 20.4125 33.9404 20.4391 33.9477 20.5045L33.9509 20.5315C33.9554 20.5678 33.9594 20.6004 33.9629 20.6299C33.9378 21.5131 33.8995 22.2925 33.847 22.9284C33.8077 23.4058 31.6716 23.6428 29.3887 23.7605C28.8858 23.7242 28.4074 23.6651 27.9822 23.3171C27.9289 23.2736 27.8622 23.2378 27.7941 23.2014C27.7254 23.1647 27.6554 23.1272 27.5966 23.0803C27.5356 23.0317 27.4735 22.9828 27.4111 22.9337C27.2204 22.7836 27.0264 22.631 26.8494 22.4726C26.7651 22.3972 26.6888 22.3077 26.6124 22.2181C26.5042 22.0911 26.3957 21.9639 26.2637 21.8759C25.8882 21.6256 25.4865 21.4218 25.0844 21.2178C24.8456 21.0966 24.6065 20.9753 24.3727 20.8441C23.185 20.1779 22.0269 19.4834 20.8937 18.7631C20.8751 19.0389 20.8522 19.3151 20.82 19.5946C20.8037 19.7357 20.7855 19.8771 20.7673 20.0185C20.6997 20.544 20.6319 21.0714 20.6597 21.6007C20.6756 21.902 20.6774 22.9227 20.6553 23.7974C20.6449 23.7971 20.6345 23.7967 20.6241 23.7963C18.8753 23.7342 17.1253 23.672 15.3837 23.7595C14.8888 23.7843 14.3951 23.8128 13.9019 23.8412C13.6017 23.8585 13.3017 23.8758 13.0017 23.8922C12.8665 22.9858 12.8355 22.0228 12.8222 21.6084L12.8205 21.557L12.8182 21.4889C12.8096 21.232 12.8011 20.9804 12.8226 20.7225C12.8396 20.5177 12.8531 20.3118 12.8665 20.1059C12.8874 19.7869 12.9082 19.4675 12.9427 19.1502C12.2461 19.5753 11.4448 20.3885 10.6233 21.2223C9.5815 22.2796 8.50715 23.3699 7.57236 23.7438C7.51818 23.7655 7.45821 23.7947 7.39558 23.8251C7.29361 23.8746 7.18461 23.9276 7.08214 23.9573C1.99916 23.7709 -4.29876e-05 22.9251 6.93035e-10 20.4842C0.00602342 20.2873 0.0114052 20.0711 0.0163922 19.8389C0.0425529 19.7518 0.0908728 19.6779 0.174053 19.5948C0.388692 19.3801 0.640185 19.1977 0.887857 19.0181C0.949014 18.9738 1.01005 18.9295 1.07013 18.8851C1.46154 18.5954 2.02942 18.2247 2.62662 17.8349C3.49376 17.2688 4.42279 16.6624 4.96318 16.2051C5.13692 16.0581 5.31058 15.9127 5.48419 15.7689C4.87249 15.7726 4.26631 15.759 3.67021 15.7135C3.12159 15.6717 2.57272 15.6104 2.02619 15.547C1.84343 15.5258 1.68594 15.5125 1.54078 15.5001C1.1432 15.4664 0.837822 15.4405 0.357215 15.2831C0.316631 15.2698 0.278348 15.2627 0.243855 15.2562C0.180278 15.2443 0.129576 15.2349 0.101069 15.1938C0.119109 14.4792 0.142033 13.7705 0.172794 13.106C0.172794 12.5898 0.225705 12.0715 0.269325 11.5394C0.29979 11.1677 0.334765 10.8294 0.375103 10.5355C0.41682 9.87527 0.44853 9.25421 0.474673 8.67034C0.501916 8.63826 0.535134 8.61048 0.577091 8.5889C2.20917 7.74955 4.7638 7.97271 7.24949 8.20767C6.4417 7.48741 5.637 6.75744 4.83297 6.01905C4.2552 5.48844 3.77059 4.7913 3.28385 4.09109C2.68564 3.23054 2.08423 2.36537 1.30273 1.79907C1.31022 1.76479 1.31944 1.7307 1.33026 1.69689C2.03447 0.510195 3.44758 0.150715 6.41575 0.235657C6.44369 0.250307 6.46947 0.266142 6.49295 0.283218C6.53702 0.315267 6.68009 0.469731 6.83116 0.632828C7.00456 0.820037 7.18851 1.01863 7.24537 1.05654C7.57258 1.27468 7.89886 1.48724 8.24595 1.67341C8.93981 2.04557 9.44589 2.67355 9.95297 3.30277C10.3796 3.83213 10.8069 4.36237 11.3473 4.74192C11.9215 5.14517 12.4679 5.57096 12.9942 6.01893C12.9769 5.91813 12.9592 5.81825 12.9421 5.72169C12.8876 5.4143 12.8391 5.1405 12.8309 4.97748C12.8004 4.37183 12.8081 3.76111 12.8157 3.15204C12.8192 2.87974 12.8226 2.60771 12.8226 2.33665C12.8226 2.00466 12.7951 1.67441 12.7677 1.34406C12.7479 1.10573 12.728 0.867325 12.7185 0.628128C12.7178 0.610999 12.717 0.593864 12.7161 0.576878C12.708 0.418054 12.7005 0.272262 12.8594 0.266029C12.9158 0.26382 12.9739 0.263703 13.0326 0.263586C13.1075 0.263435 13.1833 0.263283 13.2576 0.258788C13.7232 0.254592 14.1704 0.249547 14.5892 0.243849C15.8738 0.226371 17.5478 0.359835 19.2398 0.494737C19.4063 0.508013 19.573 0.521305 19.7396 0.534466C20.316 0.792076 20.3283 1.28962 20.3544 2.34733C20.3713 3.02845 20.3938 3.94187 20.5765 5.17309C20.6027 5.34972 20.6286 5.51422 20.6545 5.66743C21.0395 5.4386 21.4277 5.20765 21.8193 4.97399C22.4835 4.57763 23.1552 4.19113 23.8271 3.8045C24.7897 3.25058 25.7528 2.6964 26.695 2.11256C26.9567 1.95042 27.2116 1.776 27.4666 1.6015C27.8925 1.31009 28.3186 1.01848 28.7771 0.783503C28.9159 0.712331 29.0588 0.64755 29.2018 0.582743Z" fill="white"/>
<path d="M18.9458 0.471347C17.355 0.344888 15.7992 0.227392 14.589 0.243858C14.211 0.249001 13.8099 0.253611 13.393 0.257546C13.9525 3.08679 14.2531 6.50205 14.426 9.75406C13.289 9.75004 12.1381 9.71383 10.9398 9.62164C10.03 9.55165 9.06107 9.48454 8.07171 9.4812C7.01908 9.47765 5.96635 9.49035 4.9308 9.50369L4.75101 9.50601C4.18925 9.51328 3.97932 9.50978 3.72144 9.50548C3.53011 9.50229 3.31239 9.49866 2.90502 9.49866C2.76989 9.49866 2.60099 9.49372 2.41055 9.48814C1.83518 9.47129 1.06326 9.44869 0.432375 9.53935C0.4155 9.86105 0.396551 10.193 0.37491 10.5355C0.242241 11.5021 0.167574 12.9491 0.120605 14.4842C0.479022 14.4871 0.900874 14.491 1.34437 14.4952C2.67795 14.5077 4.20753 14.5221 4.79615 14.5145L4.98231 14.5121C6.01999 14.4987 7.04233 14.4865 8.0582 14.4899C8.88917 14.4927 9.73197 14.5493 10.633 14.6186C10.7664 14.6288 10.9017 14.6394 11.0384 14.6501C12.2638 14.7461 13.4454 14.7792 14.6139 14.7777C14.6301 15.5108 14.6392 16.2385 14.6363 16.9639C14.6347 17.3571 14.5838 17.6569 14.51 18.0916C14.4682 18.3383 14.419 18.6284 14.3672 19.0036C14.2754 19.6687 14.4593 22.5249 14.5808 23.8024C14.8481 23.7875 15.1156 23.773 15.3835 23.7595C16.6439 23.6962 17.9087 23.7113 19.1742 23.748C19.4683 21.875 19.6185 17.8663 19.6224 16.9104C19.6254 16.1512 19.616 15.3956 19.5996 14.645C19.8645 14.6358 20.131 14.6269 20.3995 14.6186C21.4093 14.5872 22.1877 14.4925 22.9468 14.4C23.8297 14.2925 24.6867 14.1881 25.8517 14.1904C26.1232 14.191 26.391 14.1907 26.6555 14.1905C27.2039 14.1901 27.8919 14.168 28.6278 14.1444C30.2841 14.0912 32.1842 14.0302 33.2868 14.1904C33.5483 14.1904 33.7704 14.1841 33.9588 14.1695C33.9231 12.5419 33.8647 10.8708 33.7866 9.27111C32.3107 9.08495 29.9333 9.12812 28.1265 9.16094C27.5533 9.17135 27.0375 9.18071 26.6262 9.18138C26.3662 9.18181 26.1104 9.18222 25.8597 9.18173C24.6551 9.17934 23.7659 9.28527 22.8542 9.3939C22.0799 9.48614 21.2893 9.58033 20.2755 9.61177C20.0201 9.61969 19.7666 9.62799 19.5148 9.63644C19.4959 6.50109 19.4712 3.37883 18.9458 0.471347Z" fill="#B73E54"/>
<path d="M1.62632 1.29299C2.10451 0.764191 2.81606 0.459002 3.89091 0.318634C4.03852 0.45506 4.18843 0.589287 4.33805 0.72325C4.53397 0.898669 4.7294 1.07365 4.91848 1.25251C4.97749 1.30833 5.03711 1.36499 5.09603 1.42099C5.4623 1.76907 5.82917 2.11773 6.22501 2.43183C6.27922 2.47484 6.33369 2.51786 6.38801 2.56076L6.38897 2.56152C6.73689 2.83629 7.08485 3.11109 7.40635 3.41728C8.32104 4.28842 9.12693 5.29788 9.82354 6.35143C10.2825 7.04558 10.7534 7.60248 11.302 8.23956C11.3114 8.25049 11.3223 8.26287 11.3342 8.27631L11.3349 8.2771C11.4557 8.41379 11.6713 8.65768 11.3625 8.59093C11.0124 8.51522 10.6204 8.51007 10.2287 8.50491C9.84463 8.49986 9.46076 8.49481 9.11676 8.42331C8.13291 8.2188 6.88483 6.73681 5.8985 5.56562C5.47154 5.05863 5.09362 4.60989 4.80742 4.34821L4.69233 4.24315C4.11549 3.71687 2.69243 2.41856 1.62632 1.29299Z" fill="#B73E54"/>
<path d="M5.86843 23.896C3.36214 23.7297 1.75455 23.3419 0.867188 22.5785C2.21094 21.7296 4.75455 20.0008 6.94068 18.5149L6.94158 18.5143C8.7883 17.2592 10.3797 16.1775 10.777 15.9464C11.49 15.9018 12.2017 15.9018 12.9154 15.9019L12.9811 15.9019C13.243 15.9019 13.2109 16.0557 13.1685 16.2581C13.1637 16.2813 13.1587 16.3051 13.154 16.3294C13.1418 16.3926 13.1291 16.4553 13.1165 16.5177C13.0595 16.7984 13.0039 17.0731 13.0008 17.3647C12.9954 17.8834 12.9654 17.9972 12.4943 18.3358C12.0723 18.639 11.6482 18.9337 11.2168 19.2228C10.8086 19.4964 10.4761 19.8283 10.1374 20.1663C10.0134 20.29 9.88861 20.4145 9.75896 20.5374C9.50981 20.7734 9.24609 20.9935 8.98233 21.2136C8.75892 21.4 8.53549 21.5865 8.32088 21.7827C7.69267 22.357 7.07354 22.8989 6.41085 23.4333C6.22617 23.5822 6.04592 23.7372 5.86843 23.896Z" fill="#B73E54"/>
<path d="M33.9314 21.5196C33.909 22.0424 33.8809 22.5157 33.8469 22.9285C33.8272 23.1676 33.2813 23.3464 32.4544 23.4801C31.7364 23.072 30.8934 22.6263 29.9968 22.1523C26.5558 20.3331 22.3245 18.096 21.3314 15.9591C21.5858 15.5593 23.0314 15.4502 23.7001 15.4502H24.7139C24.8384 15.4502 24.8671 15.4685 24.9622 15.5472C25.4226 15.928 25.9285 16.2388 26.4347 16.5499C26.5215 16.6033 26.6083 16.6566 26.6949 16.7103C27.1522 16.994 27.5823 17.3213 28.0122 17.6483C28.2988 17.8665 28.5854 18.0845 28.8798 18.2895C29.9173 19.0117 30.9855 19.6867 32.0536 20.3617L32.4299 20.5996C32.6204 20.7202 32.8153 20.8318 33.0101 20.9434C33.2691 21.0917 33.5281 21.2401 33.7768 21.4094C33.8292 21.4451 33.8807 21.482 33.9314 21.5196Z" fill="#B73E54"/>
<path d="M33.2234 2.24813C33.1722 2.27298 33.1215 2.2987 33.0716 2.32607C32.6815 2.54017 32.3626 2.827 32.0431 3.11445C31.8181 3.31684 31.5928 3.5196 31.342 3.69743C30.9038 4.00811 30.4834 4.34951 30.0626 4.69118C29.3402 5.27777 28.6167 5.8652 27.8011 6.29932C27.1044 6.67018 26.3767 6.96127 25.6475 7.253C25.3792 7.36033 25.1107 7.46776 24.8434 7.57927C24.7537 7.61669 24.6542 7.67195 24.55 7.72985C24.3273 7.85358 24.0827 7.98944 23.8649 7.98944C23.79 7.98944 23.6429 7.99136 23.4533 7.99384C22.6274 8.00461 20.9955 8.02591 21.0135 7.94496C21.0412 7.82021 21.0304 7.66021 21.0195 7.49815C21.0067 7.30962 20.9938 7.11829 21.0411 6.97636C21.0638 6.90839 21.0807 6.84206 21.0968 6.77905C21.1568 6.54379 21.205 6.35471 21.4958 6.29932C23.7974 5.86092 26.1183 4.02003 28.0802 2.46391C28.5324 2.10525 28.9657 1.76156 29.3751 1.45383C29.6127 1.27521 29.8443 1.091 30.0756 0.906963C30.4146 0.637256 30.7531 0.367915 31.1097 0.117055C31.1496 0.0889645 31.1924 0.0571976 31.2377 0.0222168C32.0028 0.102429 32.584 0.420705 33.0763 1.3031C33.127 1.58334 33.1761 1.8999 33.2234 2.24813Z" fill="#B73E54"/>
</svg>
