<svg width="34" height="24" viewBox="0 0 34 24" fill="none" xmlns="http://www.w3.org/2000/svg">
<path d="M16.5912 0.29487C14.0616 0.332648 11.5433 0.127951 9.01616 0.127951C2.14547 0.127951 1.78084 -1.15664 0.18998 4.41472C-0.0179595 5.14295 0.000414424 6.11434 0.000414424 6.87298C0.000414424 7.41252 -0.00932515 7.83481 0.174815 8.33731C0.366974 8.8617 0.546364 9.49577 0.546364 10.0596C0.546364 11.3423 0.751094 12.6254 0.751094 13.9177C0.751094 14.6251 0.690667 15.3268 0.682851 16.0307C0.672523 16.9608 0.530538 17.9383 0.648729 18.8608C0.743225 19.5983 0.859842 20.2211 1.13023 20.9245C1.36947 21.5469 1.44843 22.2167 1.91503 22.7302C2.33868 23.1966 2.69857 23.3781 3.29886 23.5345C4.00911 23.7196 4.80828 23.8454 5.53952 23.8911C10.5937 24.2072 15.5437 23.7325 20.5872 23.7545C22.3463 23.7622 24.0737 23.8119 25.8306 23.6521C29.2616 23.34 31.9836 23.8521 33.546 20.9245C33.801 20.4466 33.4651 17.131 33.546 16.6074C34.043 13.3892 33.6655 10.1127 33.8872 6.88057C33.9716 5.64901 34.0678 4.49152 33.9327 3.26147C33.8633 2.62991 33.7687 2.20152 33.2692 1.83128C32.6057 1.33948 31.826 1.37803 31.0209 1.22051C30.3951 1.09806 29.811 0.791793 29.1708 0.742515C27.1602 0.58776 25.1343 0.68039 23.1198 0.575597C20.9445 0.462435 18.7696 0.262337 16.5912 0.29487Z" fill="#B73E54"/>
<path fill-rule="evenodd" clip-rule="evenodd" d="M33.9524 5.91209C33.9248 5.77322 33.8288 5.77847 33.7093 5.78502C33.6826 5.78649 33.6547 5.78802 33.6261 5.78802C32.0969 5.78802 30.3981 5.72625 28.6994 5.66448C27.0009 5.60271 25.3024 5.54095 23.7736 5.54095L23.3923 5.54096C19.5259 5.54116 15.6434 5.54135 11.7825 5.36251C10.1473 5.28676 8.48466 5.12126 6.81722 4.95528C4.59112 4.73369 2.35643 4.51124 0.166821 4.50037C-0.00248268 5.16275 -0.00101157 6.00272 0.000212517 6.70165C0.000314324 6.75978 0.000414423 6.81694 0.000414423 6.87293C0.000414423 6.89899 0.000391703 6.92477 0.000369205 6.95031C-7.41186e-05 7.45345 -0.000431478 7.85903 0.174815 8.33726C0.366974 8.86165 0.546364 9.49572 0.546364 10.0596C0.546364 10.6997 0.597355 11.3399 0.648442 11.9814C0.69972 12.6253 0.751094 13.2703 0.751094 13.9177C0.751094 14.2962 0.733788 14.6732 0.716501 15.0497C0.701485 15.3768 0.686484 15.7035 0.682851 16.0307C0.679401 16.3414 0.661257 16.6574 0.643029 16.9749C0.615659 17.4516 0.588099 17.9316 0.609803 18.402C0.82228 18.5869 1.19802 18.644 1.51268 18.685C3.2429 18.9107 4.97233 18.7286 6.69968 18.5467C7.65254 18.4464 8.60477 18.3461 9.55615 18.3144C12.5672 18.2141 15.8928 18.3674 19.2613 18.5226C22.3253 18.6639 25.4248 18.8068 28.3554 18.7619C28.876 18.7539 29.4545 18.765 30.045 18.7764C30.9527 18.7938 31.8889 18.8118 32.688 18.7619C32.747 18.7582 32.8044 18.755 32.8602 18.7519C33.1621 18.735 33.4148 18.7209 33.6052 18.6484C33.597 18.4688 33.5882 18.2903 33.5796 18.1174C33.545 17.4157 33.515 16.8075 33.546 16.6073C33.8409 14.6976 33.8279 12.7672 33.8149 10.8378C33.806 9.51596 33.797 8.19456 33.8872 6.88052C33.8928 6.79878 33.8984 6.71738 33.9041 6.63625C33.921 6.3927 33.9377 6.15169 33.9524 5.91209ZM10.972 16.8692C10.8694 16.8382 10.7642 16.8107 10.6587 16.7831C10.3739 16.7086 10.086 16.6333 9.83726 16.4857C8.20714 15.5184 7.42511 12.8541 8.48304 11.332C8.53659 11.255 8.60675 11.1915 8.67613 11.1286C8.78209 11.0327 8.88625 10.9384 8.92672 10.8001C9.02483 10.4646 8.90114 10.2796 8.73167 10.0262L8.71029 9.9942C8.56221 9.77206 8.42824 9.42001 8.59589 9.17682C8.84461 8.81602 9.39349 8.66291 9.8048 8.56702C9.98376 8.5253 10.1711 8.47851 10.3646 8.43019C11.6966 8.0975 13.3218 7.69161 14.5337 8.35943C14.5718 8.38038 14.6139 8.4 14.6569 8.42005C14.775 8.47508 14.9003 8.53344 14.9681 8.63189C15.0236 8.7123 14.9992 8.73974 14.952 8.79278C14.94 8.80626 14.9265 8.8214 14.9125 8.83948C14.8561 8.91226 14.8108 8.99042 14.7655 9.06849C14.7098 9.16431 14.6543 9.25999 14.5786 9.34548C14.4746 9.46283 14.4057 9.70322 14.5368 9.82553C14.5657 9.85248 14.5946 9.87744 14.6227 9.90173C14.7262 9.99115 14.8192 10.0716 14.8646 10.209C14.9224 10.3844 14.9264 10.5591 14.9264 10.7453C14.9264 10.8579 14.9403 10.97 14.9541 11.0824C14.9681 11.1953 14.9821 11.3085 14.9821 11.4228C14.9821 11.493 14.9837 11.5641 14.9853 11.6355C14.991 11.8921 14.9969 12.1539 14.9295 12.4002C14.8697 12.6187 14.8145 12.8345 14.7603 13.0465C14.3342 14.7121 13.9671 16.147 11.9026 16.8721C11.881 16.8797 11.857 16.8886 11.8313 16.8982C11.6832 16.9536 11.4779 17.0304 11.343 16.9874C11.3017 16.9743 11.2603 16.9609 11.2188 16.9474C11.1369 16.9208 11.0545 16.8942 10.972 16.8692Z" fill="#FAD869"/>
</svg>
